<svg width="1200" height="630" viewBox="0 0 1200 630" fill="none" xmlns="http://www.w3.org/2000/svg">
  <rect width="1200" height="630" fill="#040506"/>
  <circle cx="210" cy="120" r="180" fill="#3C7DFF" fill-opacity="0.12"/>
  <circle cx="1020" cy="110" r="150" fill="#33F0B2" fill-opacity="0.12"/>
  <circle cx="860" cy="540" r="220" fill="#3C7DFF" fill-opacity="0.08"/>
  <rect x="70" y="70" width="1060" height="490" rx="40" fill="#0A1018" stroke="#FFFFFF" stroke-opacity="0.08"/>
  <g transform="translate(120,170)">
    <rect width="140" height="140" rx="34" fill="#09121B" stroke="#FFFFFF" stroke-opacity="0.08"/>
    <path d="M28 84C40 61 58 47 82 39C91 37 98 29 102 21" stroke="#3C7DFF" stroke-width="12" stroke-linecap="round"/>
    <path d="M28 104C52 66 79 54 117 54" stroke="#E7EDF4" stroke-width="12" stroke-linecap="round"/>
    <path d="M28 119C59 85 85 78 123 78" stroke="#33F0B2" stroke-width="12" stroke-linecap="round"/>
    <circle cx="104" cy="20" r="10" fill="#3C7DFF"/>
    <circle cx="118" cy="54" r="8" fill="#E7EDF4"/>
    <circle cx="124" cy="78" r="8" fill="#33F0B2"/>
  </g>
  <text x="310" y="248" fill="#E7EDF4" font-family="Space Grotesk, Arial, sans-serif" font-weight="700" font-size="76">api-402</text>
  <text x="310" y="316" fill="#33F0B2" font-family="JetBrains Mono, monospace" font-size="30">frontier access with verified settlement</text>
  <text x="120" y="420" fill="#A3B1C1" font-family="Space Grotesk, Arial, sans-serif" font-size="34">Pay per call for frontier models and agent APIs.</text>
  <text x="120" y="468" fill="#A3B1C1" font-family="Space Grotesk, Arial, sans-serif" font-size="34">Settle in Base USDC with verifiable payment replay.</text>
</svg>
